<svg width="512" height="512" viewBox="0 0 512 512" fill="none" xmlns="http://www.w3.org/2000/svg">

  <!-- fundo maior -->
  <rect x="2" y="2" width="508" height="508" rx="110"
        fill="url(#paint0_linear)"/>

  <!-- zoom geral sem destruir arte -->
  <g transform="translate(-18 -18) scale(1.07)">

    <!-- ARTE ORIGINAL -->
    
    <path d="M318.955 320C318.955 331.598 309.553 341 297.955 341H215.045C203.447 341 194.045 331.598 194.045 320V259.371C194.045 249.726 182.06 245.268 175.757 252.569C174.125 254.46 173.227 256.874 173.227 259.371V290.309C173.227 298.933 166.237 305.923 157.614 305.923C148.99 305.923 142 298.933 142 290.309V254.407C142 250.811 142.923 247.276 144.682 244.139L165.5 207L169.71 201.131C176.102 192.222 187.312 180.053 197.263 175.448C199.731 174.305 202.544 173.048 205.746 171.668C208.317 170.559 211.101 170 213.901 170H255.199H300.739C313.23 170.877 326.761 180.596 331.966 185.346L348.762 204.97C349.916 206.318 350.894 207.807 351.674 209.4L368.865 244.558C370.27 247.43 371 250.585 371 253.783V290.309C371 298.933 364.01 305.923 355.386 305.923C346.763 305.923 339.773 298.933 339.773 290.309V259.371C339.773 256.874 338.875 254.46 337.243 252.569C330.94 245.268 318.955 249.726 318.955 259.371V320Z"
          fill="white"/>

    <path d="M274.538 170C286.136 170 295.533 182.01 284.776 186.346C277.665 189.212 267.626 189.594 256.5 189.594C245.374 189.594 235.335 189.212 228.224 186.346C217.467 182.01 226.89 170 238.488 170C248.668 170 240.79 170 256.5 170C264.792 170 270.171 170 274.538 170Z"
          fill="#BDBDBD"/>

    <path d="M257 189.5C212.993 189.5 211.833 176.833 217.5 170H298C302.167 176.167 301.5 189.5 257 189.5Z"
          fill="#D9D9D9"/>

    <!-- detalhes preservados -->
    <rect width="125" height="5"
          transform="matrix(1 0 0 -1 194 276)"
          fill="#D9D9D9"/>

    <rect width="125" height="5"
          transform="matrix(1 0 0 -1 194 286)"
          fill="#D9D9D9"/>

    <!-- lanternas -->
    <path d="M183.5 240C193.459 228 193.459 255.75 193.459 255.75H173.541C173.541 255.75 173.541 252 183.5 240Z"
          fill="#BF3861"/>

    <path d="M328.959 240.01C319 228.01 319 255.76 319 255.76H338.919C338.919 255.76 338.919 252.01 328.959 240.01Z"
          fill="#D0354E"/>

  </g>

  <defs>
    <linearGradient id="paint0_linear"
                    x1="76"
                    y1="46"
                    x2="430.5"
                    y2="466.5"
                    gradientUnits="userSpaceOnUse">

      <stop stop-color="#5882B3"/>
      <stop offset="0.5" stop-color="#D02C53"/>
      <stop offset="1" stop-color="#CC5A3A"/>

    </linearGradient>
  </defs>

</svg>
