<svg width="48" height="48" viewBox="0 0 48 48" fill="none" xmlns="http://www.w3.org/2000/svg">
<g clip-path="url(#clip0_50_37)">
<rect width="48" height="48" fill="white"/>
<path d="M37.0909 48H10.9091V17.2308H10.3636L6.54546 24V38.1538H0V22.1538L8.18181 4.3077C7.99999 4.10257 8.94545 2.95385 14.1818 3.46857e-06H33.2727C35.8909 0.246157 38.7273 2.97436 39.8182 4.3077L48 22.1538V38.1538H41.4545V24L37.0909 17.2308V48Z" fill="#25466E"/>
<path d="M13.4159 35.6923L10.9091 33.3054V27.9347L13.4159 29.7249L18.7079 25.8462L24 29.7249L29.0135 25.8462L34.3056 29.7249L37.0909 27.9347V33.3054L34.3056 35.6923L29.0135 31.8135L24 35.6923L18.7079 31.8135L13.4159 35.6923Z" fill="white"/>
<path d="M32.1818 8.60374e-06C32.1818 5.09802 28.5187 8.00001 24 8.00001C19.4813 8.00001 15.8182 5.09802 15.8182 3.46857e-06C24.2727 -6.65505e-06 19.4813 8.60374e-06 24 8.60374e-06C28.5187 8.60374e-06 28.9091 8.60374e-06 32.1818 8.60374e-06Z" fill="white"/>
</g>
<defs>
<clipPath id="clip0_50_37">
<rect width="48" height="48" fill="white"/>
</clipPath>
</defs>
</svg>
